<svg xmlns="http://www.w3.org/2000/svg" viewBox="0 0 1200 630" role="img" aria-label="AURORA 极光 Web4 AI 智能预测金融操作系统">
  <defs>
    <linearGradient id="bg" x1="0" y1="0" x2="1" y2="1">
      <stop offset="0" stop-color="#15100a"/>
      <stop offset="0.52" stop-color="#070605"/>
      <stop offset="1" stop-color="#0f1715"/>
    </linearGradient>
    <radialGradient id="sun" cx="26%" cy="18%" r="70%">
      <stop offset="0" stop-color="#fef08a" stop-opacity="0.55"/>
      <stop offset="1" stop-color="#facc15" stop-opacity="0"/>
    </radialGradient>
    <linearGradient id="gold" x1="0" y1="0" x2="1" y2="1">
      <stop offset="0" stop-color="#fff7ad"/>
      <stop offset="0.45" stop-color="#facc15"/>
      <stop offset="1" stop-color="#a16207"/>
    </linearGradient>
  </defs>
  <rect width="1200" height="630" fill="url(#bg)"/>
  <rect width="1200" height="630" fill="url(#sun)"/>
  <g opacity="0.34" stroke="#facc15" stroke-width="1">
    <path d="M80 500C260 380 400 430 560 340s300-120 560-42" fill="none"/>
    <path d="M80 548c190-130 350-82 510-170s320-150 530-92" fill="none"/>
  </g>
  <g transform="translate(88 96)">
    <rect width="82" height="82" rx="18" fill="#080706" stroke="#facc15" stroke-opacity="0.36"/>
    <path d="M41 13 67 69H54l-5-12H34l-5 12H16L41 13Zm-4 34h9l-5-12-4 12Z" fill="url(#gold)"/>
  </g>
  <text x="88" y="246" fill="#fef3c7" font-family="Microsoft YaHei, Segoe UI, Arial, sans-serif" font-size="76" font-weight="800">AURORA 极光</text>
  <text x="92" y="328" fill="#facc15" font-family="Microsoft YaHei, Segoe UI, Arial, sans-serif" font-size="42" font-weight="700">Web4 AI 智能预测金融操作系统</text>
  <text x="92" y="402" fill="#d6d3d1" font-family="Microsoft YaHei, Segoe UI, Arial, sans-serif" font-size="30">趋势预判 · 资产策略 · 节点共建 · 生态治理</text>
  <g transform="translate(92 470)" fill="#0f0d0a" stroke="#facc15" stroke-opacity="0.35">
    <rect width="190" height="54" rx="10" fill="#facc15"/>
    <text x="34" y="36" fill="#090806" font-family="Microsoft YaHei, Segoe UI, Arial, sans-serif" font-size="24" font-weight="800">进入生态</text>
    <rect x="218" width="244" height="54" rx="10" fill="#090806"/>
    <text x="248" y="36" fill="#fef3c7" font-family="Microsoft YaHei, Segoe UI, Arial, sans-serif" font-size="24" font-weight="700">查看资料中心</text>
  </g>
</svg>
